<svg xmlns="http://www.w3.org/2000/svg" xmlns:xlink="http://www.w3.org/1999/xlink" viewBox="0 0 128 128"><defs><path id="a" d="M79 86.758L75.742 83.5l2.379-2.379a2.997 2.997 0 0 0 0-4.242 2.997 2.997 0 0 0-4.242 0l-2.38 2.38L68.243 76 76 68.242 86.757 79 79 86.758zm-34.69-8.202l5.133 5.133-7.7 2.568 2.567-7.7zM48.742 56.5l2.38-2.379a2.997 2.997 0 0 0 0-4.241 2.997 2.997 0 0 0-4.243 0L44.5 52.259 41.243 49 49 41.243 59.758 52 52 59.758 48.742 56.5zm37.652-14.894a5.492 5.492 0 0 1 0 7.758L85 50.759 77.242 43l1.395-1.395a5.492 5.492 0 0 1 7.757 0zM47.242 73L73 47.243 80.758 55 55 80.758 47.242 73zm45.878 3.88L80.242 64l10.394-10.394c4.48-4.476 4.48-11.766 0-16.242-4.476-4.476-11.765-4.476-16.241 0L64 47.759l-12.879-12.88a2.997 2.997 0 0 0-4.242 0l-12 12a2.997 2.997 0 0 0 0 4.243L47.76 64l-6.88 6.88a2.989 2.989 0 0 0-.722 1.172l-6 18a2.994 2.994 0 0 0 .723 3.069 2.99 2.99 0 0 0 3.069.723l18-6a2.989 2.989 0 0 0 1.172-.723L64 80.242l12.879 12.879a2.992 2.992 0 0 0 2.12.879c.769 0 1.537-.294 2.122-.879l12-12a2.997 2.997 0 0 0 0-4.242z"/></defs><g fill="none" fill-rule="evenodd"><path d="M0 0h128v128H0z"/><use fill="#5C6AC4" xlink:href="#a"/></g></svg>